<svg width="48" height="48" viewBox="0 0 48 48" fill="none" xmlns="http://www.w3.org/2000/svg">
<path d="M23.6001 43.6001C20.8334 43.6001 18.2334 43.0751 15.8001 42.0251C13.3668 40.9751 11.2501 39.5501 9.4501 37.7501C7.6501 35.9501 6.2251 33.8334 5.1751 31.4001C4.1251 28.9668 3.6001 26.3668 3.6001 23.6001C3.6001 20.8334 4.1251 18.2334 5.1751 15.8001C6.2251 13.3668 7.6501 11.2501 9.4501 9.4501C11.2501 7.6501 13.3668 6.2251 15.8001 5.1751C18.2334 4.1251 20.8334 3.6001 23.6001 3.6001C26.3668 3.6001 28.9668 4.1251 31.4001 5.1751C33.8334 6.2251 35.9501 7.6501 37.7501 9.4501C39.5501 11.2501 40.9751 13.3668 42.0251 15.8001C43.0751 18.2334 43.6001 20.8334 43.6001 23.6001C43.6001 26.3668 43.0751 28.9668 42.0251 31.4001C40.9751 33.8334 39.5501 35.9501 37.7501 37.7501C35.9501 39.5501 33.8334 40.9751 31.4001 42.0251C28.9668 43.0751 26.3668 43.6001 23.6001 43.6001ZM23.6001 39.6001C28.0334 39.6001 31.8084 38.0418 34.9251 34.9251C38.0418 31.8084 39.6001 28.0334 39.6001 23.6001C39.6001 19.1668 38.0418 15.3918 34.9251 12.2751C31.8084 9.15843 28.0334 7.6001 23.6001 7.6001C19.1668 7.6001 15.3918 9.15843 12.2751 12.2751C9.15843 15.3918 7.6001 19.1668 7.6001 23.6001C7.6001 28.0334 9.15843 31.8084 12.2751 34.9251C15.3918 38.0418 19.1668 39.6001 23.6001 39.6001Z" fill="#41A8E4"/>
<path d="M20.3999 30H17.3999V21H14.3999V18H20.3999V30Z" fill="#41A8E4"/>
<path fill-rule="evenodd" clip-rule="evenodd" d="M30.3999 30H25.3999C24.8332 30 24.3582 29.8083 23.9749 29.425C23.5916 29.0417 23.3999 28.5667 23.3999 28V20C23.3999 19.4333 23.5916 18.9583 23.9749 18.575C24.3582 18.1917 24.8332 18 25.3999 18H30.3999C30.9666 18 31.4416 18.1917 31.8249 18.575C32.2082 18.9583 32.3999 19.4333 32.3999 20V28C32.3999 28.5667 32.2082 29.0417 31.8249 29.425C31.4416 29.8083 30.9666 30 30.3999 30ZM26.3999 23V20H29.3999V23H26.3999ZM26.3999 25V28H29.3999V25H26.3999Z" fill="#41A8E4"/>
</svg>
