<svg width="56" height="56" viewBox="0 0 56 56" fill="none" xmlns="http://www.w3.org/2000/svg">
<rect width="56" height="56" rx="28" fill="#F0F9FE"/>
<path d="M22.3999 15.4004C18.5345 15.4004 15.3999 18.535 15.3999 22.4004V33.6004C15.3999 37.4658 18.5345 40.6004 22.3999 40.6004H33.5999C37.4653 40.6004 40.5999 37.4658 40.5999 33.6004V22.4004C40.5999 18.535 37.4653 15.4004 33.5999 15.4004H22.3999ZM36.3999 18.2004C37.1727 18.2004 37.7999 18.8276 37.7999 19.6004C37.7999 20.3732 37.1727 21.0004 36.3999 21.0004C35.6271 21.0004 34.9999 20.3732 34.9999 19.6004C34.9999 18.8276 35.6271 18.2004 36.3999 18.2004ZM27.9999 21.0004C31.8653 21.0004 34.9999 24.135 34.9999 28.0004C34.9999 31.8658 31.8653 35.0004 27.9999 35.0004C24.1345 35.0004 20.9999 31.8658 20.9999 28.0004C20.9999 24.135 24.1345 21.0004 27.9999 21.0004ZM27.9999 23.8004C25.6803 23.8004 23.7999 25.6808 23.7999 28.0004C23.7999 30.32 25.6803 32.2004 27.9999 32.2004C30.3195 32.2004 32.1999 30.32 32.1999 28.0004C32.1999 25.6808 30.3195 23.8004 27.9999 23.8004Z" fill="#41A8E4"/>
</svg>
