<svg width="56" height="56" viewBox="0 0 56 56" fill="none" xmlns="http://www.w3.org/2000/svg">
<rect width="56" height="56" rx="28" fill="#F0F9FE"/>
<path d="M39.6237 15.3783C39.2192 15.3959 38.8479 15.5122 38.5218 15.6408C38.2205 15.7594 37.1385 16.2142 35.4155 16.9369C33.6926 17.6595 31.4096 18.6177 28.9761 19.6412C24.1091 21.6881 18.6398 23.9907 15.8374 25.1701C15.7412 25.2102 15.3503 25.3298 14.9186 25.6595C14.486 25.99 14.0054 26.7072 14.0054 27.4916C14.0054 28.1243 14.3212 28.7687 14.7026 29.1376C15.084 29.5066 15.4706 29.6791 15.7937 29.8076V29.8048C16.8857 30.2399 20.1469 31.5449 20.9233 31.8556C21.1988 32.681 22.3811 36.2143 22.6624 37.1029H22.6597C22.8585 37.7318 23.0523 38.1416 23.3214 38.4838C23.456 38.6548 23.6166 38.8098 23.8136 38.9322C23.8892 38.9791 23.9729 39.0156 24.057 39.0498C24.0687 39.0547 24.0807 39.056 24.0925 39.0607L24.0597 39.0525C24.0841 39.0623 24.1059 39.0768 24.1308 39.0853C24.1712 39.0993 24.1993 39.0988 24.2538 39.1099C24.4456 39.1689 24.6371 39.2084 24.8144 39.2084C25.5754 39.2084 26.0421 38.7955 26.0421 38.7955L26.0722 38.7736L29.3589 35.9927L33.3839 39.7169C33.4574 39.8208 34.0334 40.6001 35.3663 40.6001C36.1617 40.6001 36.7906 40.2065 37.1929 39.7935C37.5952 39.3806 37.8459 38.958 37.9585 38.3853L37.9613 38.3826C38.0511 37.9203 41.9042 18.572 41.9042 18.572L41.896 18.6048C42.016 18.0695 42.0514 17.5519 41.9097 17.0244C41.768 16.4968 41.3857 15.982 40.9253 15.7119C40.465 15.4417 40.0283 15.3607 39.6237 15.3783ZM39.0714 18.4435C38.9191 19.2079 35.4675 36.5484 35.2542 37.6361L29.4409 32.2576L25.5116 35.5798L26.5999 31.3251C26.5999 31.3251 34.1075 23.7257 34.5597 23.2833C34.9237 22.9291 34.9999 22.805 34.9999 22.6818C34.9999 22.518 34.9156 22.4001 34.721 22.4001C34.546 22.4001 34.3083 22.5678 34.1823 22.6462C32.5812 23.6444 25.7617 27.5307 22.4081 29.4384C22.2063 29.3575 19.1763 28.1408 17.5436 27.4888C20.4476 26.2666 25.4255 24.1723 30.0616 22.2224C32.4947 21.1991 34.7771 20.2401 36.4984 19.5181C37.9513 18.9087 38.7093 18.5931 39.0714 18.4435ZM35.2132 37.8357H35.2159C35.2159 37.836 35.2133 37.8435 35.2132 37.8439C35.215 37.8349 35.2119 37.8428 35.2132 37.8357Z" fill="#41A8E4"/>
</svg>
