<svg width="48" height="48" viewBox="0 0 48 48" fill="none" xmlns="http://www.w3.org/2000/svg">
<path d="M30.6 33.4L33.4 30.6L26 23.2V14H22V24.8L30.6 33.4ZM24 44C21.2333 44 18.6333 43.475 16.2 42.425C13.7667 41.375 11.65 39.95 9.85 38.15C8.05 36.35 6.625 34.2333 5.575 31.8C4.525 29.3667 4 26.7667 4 24C4 21.2333 4.525 18.6333 5.575 16.2C6.625 13.7667 8.05 11.65 9.85 9.85C11.65 8.05 13.7667 6.625 16.2 5.575C18.6333 4.525 21.2333 4 24 4C26.7667 4 29.3667 4.525 31.8 5.575C34.2333 6.625 36.35 8.05 38.15 9.85C39.95 11.65 41.375 13.7667 42.425 16.2C43.475 18.6333 44 21.2333 44 24C44 26.7667 43.475 29.3667 42.425 31.8C41.375 34.2333 39.95 36.35 38.15 38.15C36.35 39.95 34.2333 41.375 31.8 42.425C29.3667 43.475 26.7667 44 24 44ZM24 40C28.4333 40 32.2083 38.4417 35.325 35.325C38.4417 32.2083 40 28.4333 40 24C40 19.5667 38.4417 15.7917 35.325 12.675C32.2083 9.55833 28.4333 8 24 8C19.5667 8 15.7917 9.55833 12.675 12.675C9.55833 15.7917 8 19.5667 8 24C8 28.4333 9.55833 32.2083 12.675 35.325C15.7917 38.4417 19.5667 40 24 40Z" fill="#41A8E4"/>
</svg>
