<svg width="56" height="56" viewBox="0 0 56 56" fill="none" xmlns="http://www.w3.org/2000/svg">
<rect width="56" height="56" rx="28" fill="#F0F9FE"/>
<path d="M41.4148 19.8602C41.0928 18.6562 40.1436 17.707 38.9396 17.385C36.7556 16.7998 28 16.7998 28 16.7998C28 16.7998 19.2444 16.7998 17.0604 17.385C15.8564 17.707 14.9072 18.6562 14.5852 19.8602C14 22.0442 14 27.9998 14 27.9998C14 27.9998 14 33.9554 14.5852 36.1394C14.9072 37.3434 15.8564 38.2926 17.0604 38.6146C19.2444 39.1998 28 39.1998 28 39.1998C28 39.1998 36.7556 39.1998 38.9396 38.6146C40.145 38.2926 41.0928 37.3434 41.4148 36.1394C42 33.9554 42 27.9998 42 27.9998C42 27.9998 42 22.0442 41.4148 19.8602ZM25.2 32.8494V23.1502L33.6 27.9998L25.2 32.8494Z" fill="#41A8E4"/>
</svg>
